# xmcd CD Database Entry
#
# Track frame offsets:
# 150
# 16652
# 31797
# 50661
# 75793
# 87318
# 114988
# 130934
# 147720
#
# Disc length: 2652 seconds
#
# Revision: 1
# Processed by: cddbd v1.4PL0 Copyright (c) Steve Scherf et al.
# Submitted via: tcd 2.0b
#
DISCID=670a5a09
DTITLE=Grant Siemens - Grant Siemens
DYEAR=1900
DGENRE=
TTITLE0=Nobody's Dirty Business
TTITLE1=Clyde
TTITLE2=Ramblin on My Mind
TTITLE3=Yellow Roses
TTITLE4=The Breeze
TTITLE5=Who'll Sop My Gravy
TTITLE6=Mud Burn
TTITLE7=Please Be True
TTITLE8=The Lone Sunrise
EXTD="Well, smack my lips here's a rip-snortin' treat"
EXTT0=j.hurt
EXTT1=j.j. cale
EXTT2=r. johnson
EXTT3=k.devine, s.nichols
EXTT4=j.j. cale
EXTT5=j.mathus
EXTT6=g.siemens
EXTT7=g.siemens
EXTT8=g.siemens
PLAYORDER=
